<?xml version="1.0" encoding="utf-8"?>
<!-- Generator: Adobe Illustrator 27.7.0, SVG Export Plug-In . SVG Version: 6.00 Build 0)  -->
<svg version="1.1" xmlns="http://www.w3.org/2000/svg" xmlns:xlink="http://www.w3.org/1999/xlink" x="0px" y="0px"
	 viewBox="0 0 4480.2 798.89" style="enable-background:new 0 0 4480.2 798.89;" xml:space="preserve">
<style type="text/css">
	.st0{fill:#FFFFFF;}
</style>
<g id="Background">
</g>
<g id="Artwork">
	<g>
		<path class="st0" d="M720,725.46h160v-480H720V725.46z M960,165.46h400v-160H960V165.46z M720,5.46h160v160H720V5.46z M480,725.46
			h160v-720H480V725.46z M240,565.46h160v-560H240V565.46z M0,725.46h160v-720H0V725.46z M960,725.46h160v-480H960V725.46z"/>
		<g>
			<path class="st0" d="M1644.28,701.54h-0.84c-10.91,16.36-26.43,28.95-63.36,28.95c-44.06,0-75.11-23.08-75.11-65.88
				c0-47.41,38.6-62.52,86.43-69.23c35.67-5.04,52.03-7.97,52.03-24.34c0-15.52-12.17-25.59-36.08-25.59
				c-26.85,0-39.86,9.65-41.54,30.21h-50.77c1.68-37.76,29.79-70.91,92.73-70.91c64.62,0,90.63,28.95,90.63,79.3v109.51
				c0,16.36,2.52,26.01,7.55,29.79v2.1h-54.97C1647.63,721.26,1645.53,711.19,1644.28,701.54z M1644.69,649.51v-32.31
				c-10.07,5.88-25.59,9.23-39.86,12.59c-29.79,6.71-44.48,13.43-44.48,33.57c0,20.14,13.43,27.27,33.57,27.27
				C1626.65,690.63,1644.69,670.49,1644.69,649.51z"/>
			<path class="st0" d="M1790.28,539.58h1.26c14.69-23.08,34.41-35.25,63.78-35.25c44.48,0,74.27,33.57,74.27,80.56v140.56h-57.06
				V593.29c0-23.08-13.43-39.44-37.34-39.44c-25.17,0-43.64,20.14-43.64,49.51v122.1h-57.06V510.21h55.8V539.58z"/>
			<path class="st0" d="M1954.34,618.04c0-67.13,38.18-113.71,91.89-113.71c30.21,0,49.09,13.85,60.84,31.89h1.26V425.46h57.06v300
				h-54.97v-28.11h-0.84c-12.59,20.56-33.99,34.41-64.2,34.41C1991.26,731.75,1954.34,687.7,1954.34,618.04z M2109.58,619.3
				c0-41.12-13.43-68.81-49.93-68.81c-31.47,0-47.41,27.69-47.41,67.55c0,41.54,16.36,65.88,45.74,65.88
				C2091.96,683.92,2109.58,658.74,2109.58,619.3z"/>
			<path class="st0" d="M2277.41,425.46h220.7v51.19h-159.86v67.13h140.14v49.93h-140.14v80.98h161.12v50.77h-221.96V425.46z"/>
			<path class="st0" d="M2588.32,539.58h1.26c14.69-23.08,34.41-35.25,63.78-35.25c44.48,0,74.27,33.57,74.27,80.56v140.56h-57.06
				V593.29c0-23.08-13.43-39.44-37.34-39.44c-25.17,0-43.64,20.14-43.64,49.51v122.1h-57.06V510.21h55.8V539.58z"/>
			<path class="st0" d="M2756.98,731.75h56.64c4.62,13.43,16.78,23.92,43.22,23.92c32.31,0,47.83-15.52,47.83-44.9v-23.5h-1.26
				c-12.59,14.27-28.95,25.17-56.22,25.17c-47.83,0-94.83-37.76-94.83-102.8c0-64.2,38.6-105.32,93.15-105.32
				c26.85,0,46.57,10.49,59.58,28.53h0.84v-22.66h54.97v198.88c0,30.21-9.65,50.77-25.59,65.46
				c-18.04,16.78-45.74,24.34-77.62,24.34C2798.94,798.89,2762.86,773.71,2756.98,731.75z M2907.62,608.39
				c0-31.47-16.78-58.32-51.19-58.32c-28.95,0-48.25,22.66-48.25,58.74c0,36.5,19.3,57.9,48.67,57.9
				C2892.93,666.72,2907.62,640.28,2907.62,608.39z"/>
			<path class="st0" d="M2997.82,425.46h57.06v51.19h-57.06V425.46z M2997.82,510.21h57.06v215.25h-57.06V510.21z"/>
			<path class="st0" d="M3147.61,539.58h1.26c14.69-23.08,34.41-35.25,63.78-35.25c44.48,0,74.27,33.57,74.27,80.56v140.56h-57.06
				V593.29c0-23.08-13.43-39.44-37.34-39.44c-25.17,0-43.64,20.14-43.64,49.51v122.1h-57.06V510.21h55.8V539.58z"/>
			<path class="st0" d="M3311.67,617.62c0-63.78,43.22-113.29,106.16-113.29c69.23,0,106.16,52.87,106.16,129.65h-156.09
				c4.2,33.15,22.66,53.71,54.97,53.71c22.24,0,35.25-10.07,41.54-26.43h56.22c-7.97,38.18-41.96,70.49-97.34,70.49
				C3351.95,731.75,3311.67,681.82,3311.67,617.62z M3368.73,594.55h95.67c-1.68-27.27-19.72-46.15-45.73-46.15
				C3388.45,548.39,3373.77,566.44,3368.73,594.55z"/>
			<path class="st0" d="M3539.91,617.62c0-63.78,43.22-113.29,106.16-113.29c69.23,0,106.16,52.87,106.16,129.65h-156.09
				c4.2,33.15,22.66,53.71,54.97,53.71c22.24,0,35.25-10.07,41.54-26.43h56.22c-7.97,38.18-41.96,70.49-97.34,70.49
				C3580.19,731.75,3539.91,681.82,3539.91,617.62z M3596.98,594.55h95.67c-1.68-27.27-19.72-46.15-45.73-46.15
				C3616.7,548.39,3602.01,566.44,3596.98,594.55z"/>
			<path class="st0" d="M3833.62,544.62h1.26c13.01-24.34,27.69-36.92,52.87-36.92c6.29,0,10.07,0.42,13.43,1.68v49.93h-1.26
				c-37.34-3.78-64.2,15.94-64.2,61.26v104.9h-57.06V510.21h54.97V544.62z"/>
			<path class="st0" d="M3925.92,425.46h57.06v51.19h-57.06V425.46z M3925.92,510.21h57.06v215.25h-57.06V510.21z"/>
			<path class="st0" d="M4075.71,539.58h1.26c14.69-23.08,34.41-35.25,63.78-35.25c44.48,0,74.27,33.57,74.27,80.56v140.56h-57.06
				V593.29c0-23.08-13.43-39.44-37.34-39.44c-25.17,0-43.64,20.14-43.64,49.51v122.1h-57.06V510.21h55.8V539.58z"/>
			<path class="st0" d="M4244.38,731.75h56.64c4.62,13.43,16.78,23.92,43.22,23.92c32.31,0,47.83-15.52,47.83-44.9v-23.5h-1.26
				c-12.59,14.27-28.95,25.17-56.22,25.17c-47.83,0-94.83-37.76-94.83-102.8c0-64.2,38.6-105.32,93.15-105.32
				c26.85,0,46.57,10.49,59.58,28.53h0.84v-22.66h54.97v198.88c0,30.21-9.65,50.77-25.59,65.46
				c-18.04,16.78-45.74,24.34-77.62,24.34C4286.34,798.89,4250.26,773.71,4244.38,731.75z M4395.01,608.39
				c0-31.47-16.78-58.32-51.19-58.32c-28.95,0-48.25,22.66-48.25,58.74c0,36.5,19.3,57.9,48.67,57.9
				C4380.33,666.72,4395.01,640.28,4395.01,608.39z"/>
		</g>
		<g>
			<path class="st0" d="M1520.08,5.46h61.68l99.86,167.41c9.65,16.36,20.98,41.96,20.98,41.96h0.84c0,0-1.68-31.05-1.68-52.03V5.46
				h60v300h-58.74l-102.38-165.74c-9.65-15.94-21.4-41.54-21.4-41.54h-0.84c0,0,1.68,31.47,1.68,52.45v154.83h-60V5.46z"/>
			<path class="st0" d="M1939.24,305.46v-25.18h-1.26c-14.69,19.72-31.47,31.05-61.68,31.05c-47.83,0-74.69-30.63-74.69-77.62V90.21
				h56.64v133.85c0,25.18,11.33,39.02,35.67,39.02c26.85,0,43.22-20.14,43.22-48.67V90.21h57.06v215.25H1939.24z"/>
			<path class="st0" d="M2020.63,198.04c0-64.2,41.96-113.71,107.41-113.71c55.81,0,90.21,32.31,97.76,78.88H2170
				c-3.78-18.88-18.46-33.15-39.44-33.15c-34.41,0-52.03,26.43-52.03,67.97c0,40.7,16.36,67.97,51.19,67.97
				c23.08,0,39.44-12.17,43.22-36.5h54.97c-3.78,45.73-39.44,82.24-96.92,82.24C2063.01,311.75,2020.63,262.24,2020.63,198.04z"/>
			<path class="st0" d="M2253.5,5.46h57.06v300h-57.06V5.46z"/>
			<path class="st0" d="M2337.83,197.62c0-63.78,43.22-113.29,106.16-113.29c69.23,0,106.16,52.87,106.16,129.65h-156.09
				c4.2,33.15,22.66,53.71,54.97,53.71c22.24,0,35.25-10.07,41.54-26.43h56.22c-7.97,38.18-41.96,70.49-97.34,70.49
				C2378.11,311.75,2337.83,261.82,2337.83,197.62z M2394.9,174.55h95.67c-1.68-27.27-19.72-46.15-45.73-46.15
				C2414.62,128.39,2399.93,146.44,2394.9,174.55z"/>
			<path class="st0" d="M2705.38,281.54h-0.84c-10.91,16.36-26.43,28.95-63.36,28.95c-44.06,0-75.11-23.08-75.11-65.88
				c0-47.41,38.6-62.52,86.44-69.23c35.66-5.04,52.03-7.97,52.03-24.34c0-15.52-12.17-25.59-36.08-25.59
				c-26.85,0-39.86,9.65-41.54,30.21h-50.77c1.68-37.76,29.79-70.91,92.73-70.91c64.62,0,90.63,28.95,90.63,79.3v109.51
				c0,16.36,2.52,26.01,7.55,29.79v2.1h-54.97C2708.74,301.26,2706.64,291.19,2705.38,281.54z M2705.8,229.51v-32.31
				c-10.07,5.88-25.59,9.23-39.86,12.59c-29.79,6.71-44.48,13.43-44.48,33.57c0,20.14,13.43,27.27,33.57,27.27
				C2687.76,270.63,2705.8,250.49,2705.8,229.51z"/>
			<path class="st0" d="M2850.55,124.62h1.26c13.01-24.34,27.69-36.92,52.87-36.92c6.29,0,10.07,0.42,13.43,1.68v49.93h-1.26
				c-37.34-3.78-64.2,15.94-64.2,61.26v104.9h-57.06V90.21h54.97V124.62z"/>
			<path class="st0" d="M3004.54,212.73h59.58c4.2,36.08,24.76,50.35,67.55,50.35c31.05,0,58.32-10.91,58.32-38.6
				c0-29.37-28.53-35.25-74.27-45.73c-53.71-12.17-102.8-26.43-102.8-88.95c0-59.16,48.25-89.79,114.97-89.79
				c67.55,0,111.19,33.15,115.81,93.57h-58.32c-3.36-30.21-26.85-45.32-57.9-45.32c-32.73,0-54.13,13.85-54.13,35.25
				c0,24.34,20.98,31.47,65.46,41.12c61.68,13.43,112.03,28.11,112.03,92.73c0,60.84-49.09,94.83-116.64,94.83
				C3052.79,312.17,3006.63,276.09,3004.54,212.73z"/>
			<path class="st0" d="M3272.23,198.04c0-64.2,41.96-113.71,107.41-113.71c55.81,0,90.21,32.31,97.76,78.88h-55.8
				c-3.78-18.88-18.46-33.15-39.44-33.15c-34.41,0-52.03,26.43-52.03,67.97c0,40.7,16.36,67.97,51.19,67.97
				c23.08,0,39.44-12.17,43.22-36.5h54.97c-3.78,45.73-39.44,82.24-96.92,82.24C3314.61,311.75,3272.23,262.24,3272.23,198.04z"/>
			<path class="st0" d="M3504.26,5.46h57.06v51.19h-57.06V5.46z M3504.26,90.21h57.06v215.25h-57.06V90.21z"/>
			<path class="st0" d="M3587.75,197.62c0-63.78,43.22-113.29,106.16-113.29c69.23,0,106.16,52.87,106.16,129.65h-156.09
				c4.2,33.15,22.66,53.71,54.97,53.71c22.24,0,35.25-10.07,41.54-26.43h56.22c-7.97,38.18-41.96,70.49-97.34,70.49
				C3628.03,311.75,3587.75,261.82,3587.75,197.62z M3644.82,174.55h95.67c-1.68-27.27-19.72-46.15-45.73-46.15
				C3664.54,128.39,3649.85,146.44,3644.82,174.55z"/>
			<path class="st0" d="M3882.29,119.58h1.26c14.69-23.08,34.41-35.25,63.78-35.25c44.48,0,74.27,33.57,74.27,80.56v140.56h-57.06
				V173.29c0-23.08-13.43-39.44-37.34-39.44c-25.17,0-43.64,20.14-43.64,49.51v122.1h-57.06V90.21h55.8V119.58z"/>
			<path class="st0" d="M4046.35,198.04c0-64.2,41.96-113.71,107.41-113.71c55.81,0,90.21,32.31,97.76,78.88h-55.8
				c-3.78-18.88-18.46-33.15-39.44-33.15c-34.41,0-52.03,26.43-52.03,67.97c0,40.7,16.36,67.97,51.19,67.97
				c23.08,0,39.44-12.17,43.22-36.5h54.97c-3.78,45.73-39.44,82.24-96.92,82.24C4088.73,311.75,4046.35,262.24,4046.35,198.04z"/>
			<path class="st0" d="M4267.89,197.62c0-63.78,43.22-113.29,106.16-113.29c69.23,0,106.16,52.87,106.16,129.65h-156.09
				c4.2,33.15,22.66,53.71,54.97,53.71c22.24,0,35.25-10.07,41.54-26.43h56.22c-7.97,38.18-41.96,70.49-97.34,70.49
				C4308.17,311.75,4267.89,261.82,4267.89,197.62z M4324.95,174.55h95.67c-1.68-27.27-19.72-46.15-45.73-46.15
				C4344.67,128.39,4329.99,146.44,4324.95,174.55z"/>
		</g>
	</g>
</g>
<g id="Guides">
</g>
</svg>
